<svg width="73" height="30" viewBox="0 0 73 30" fill="none" xmlns="http://www.w3.org/2000/svg">
    <path d="M10.297 25.4175C8.54416 25.4175 6.86438 25.1879 5.25763 24.7289C3.65089 24.2489 2.35715 23.6334 1.37641 22.8822L3.09792 19.0635C4.03692 19.7313 5.14287 20.2842 6.41574 20.7224C7.70948 21.1398 9.01366 21.3484 10.3283 21.3484C11.3299 21.3484 12.1332 21.2545 12.7384 21.0667C13.3644 20.8581 13.8235 20.5764 14.1156 20.2216C14.4077 19.8669 14.5538 19.46 14.5538 19.0009C14.5538 18.4167 14.3243 17.9576 13.8652 17.6237C13.4061 17.269 12.801 16.9873 12.0498 16.7786C11.2986 16.5491 10.4639 16.3404 9.54576 16.1526C8.64849 15.9439 7.74078 15.6935 6.82264 15.4014C5.92537 15.1093 5.10113 14.7337 4.34993 14.2746C3.59872 13.8155 2.98315 13.2104 2.50321 12.4592C2.04414 11.708 1.81461 10.7481 1.81461 9.57956C1.81461 8.32756 2.14848 7.19031 2.81622 6.16784C3.50482 5.1245 4.52729 4.30026 5.88364 3.69512C7.26085 3.06912 8.98236 2.75612 11.0482 2.75612C12.4254 2.75612 13.7817 2.92305 15.1172 3.25692C16.4527 3.56992 17.6317 4.04986 18.6541 4.69673L17.0891 8.54666C16.0666 7.96239 15.0442 7.53462 14.0217 7.26335C12.9992 6.97121 11.9976 6.82515 11.0169 6.82515C10.0361 6.82515 9.23276 6.93991 8.60676 7.16945C7.98075 7.39898 7.53211 7.70155 7.26085 8.07715C6.98958 8.43189 6.85394 8.84923 6.85394 9.32916C6.85394 9.89257 7.08348 10.3516 7.54255 10.7064C8.00162 11.0402 8.60676 11.3115 9.35796 11.5202C10.1092 11.7288 10.9334 11.9375 11.8307 12.1462C12.7488 12.3548 13.6565 12.5948 14.5538 12.8661C15.4719 13.1374 16.3066 13.5025 17.0578 13.9616C17.809 14.4207 18.4142 15.0258 18.8732 15.777C19.3532 16.5282 19.5931 17.4777 19.5931 18.6253C19.5931 19.8565 19.2488 20.9833 18.5602 22.0057C17.8716 23.0282 16.8387 23.8525 15.4615 24.4785C14.1052 25.1045 12.3836 25.4175 10.297 25.4175ZM21.4929 25.0419V3.13172H26.5635V25.0419H21.4929ZM30.1983 25.0419V3.13172H39.6822C41.6437 3.13172 43.3339 3.45516 44.7529 4.10203C46.1718 4.72803 47.2673 5.63574 48.0394 6.82515C48.8115 8.01455 49.1975 9.4335 49.1975 11.082C49.1975 12.7096 48.8115 14.1181 48.0394 15.3075C47.2673 16.476 46.1718 17.3733 44.7529 17.9993C43.3339 18.6253 41.6437 18.9383 39.6822 18.9383H33.0153L35.2689 16.716V25.0419H30.1983ZM44.1269 25.0419L38.6493 17.0916H44.0643L49.6044 25.0419H44.1269ZM35.2689 17.2794L33.0153 14.9006H39.4005C40.9656 14.9006 42.1341 14.5667 42.9062 13.899C43.6782 13.2104 44.0643 12.2714 44.0643 11.082C44.0643 9.8717 43.6782 8.93269 42.9062 8.26496C42.1341 7.59722 40.9656 7.26335 39.4005 7.26335H33.0153L35.2689 4.85323V17.2794Z" fill="#0f62e6"/>
    <path d="M51.5 13.5418C51.5 7.63607 56.2876 2.84851 62.1933 2.84851V13.5418H51.5Z" fill="#0f62e6"/>
    <path d="M51.5 13.5419H62.1933V24.2352C56.2876 24.2352 51.5 19.4476 51.5 13.5419Z" fill="#0f62e6"/>
    <path d="M62.1932 13.5419H72.8866C72.8866 19.4476 68.099 24.2352 62.1932 24.2352V13.5419Z" fill="#0f62e6"/>
    <path d="M62.1932 13.5419L62.1932 2.84855C68.099 2.84855 72.8866 7.63611 72.8866 13.5419L62.1932 13.5419Z" fill="#0f62e6"/>
    <!-- <path d="M2.03318 31.1643V34.9583H1.57375V31.1643H2.03318ZM6.99432 34.9583H5.82353V31.1643H7.0462C7.41423 31.1643 7.72916 31.2402 7.99098 31.3921C8.2528 31.5428 8.45349 31.7596 8.59305 32.0424C8.73261 32.324 8.80239 32.6611 8.80239 33.0539C8.80239 33.4491 8.73199 33.7893 8.5912 34.0746C8.45041 34.3587 8.24539 34.5772 7.97616 34.7304C7.70693 34.8823 7.37965 34.9583 6.99432 34.9583ZM6.28296 34.5507H6.96468C7.27838 34.5507 7.53835 34.4902 7.7446 34.3691C7.95084 34.2481 8.1046 34.0758 8.20587 33.8523C8.30715 33.6288 8.35778 33.3626 8.35778 33.0539C8.35778 32.7476 8.30776 32.4839 8.20773 32.2628C8.10769 32.0405 7.95825 31.8701 7.75942 31.7515C7.56058 31.6317 7.31296 31.5718 7.01656 31.5718H6.28296V34.5507ZM12.4422 34.9583V31.1643H14.7319V31.5718H12.9016V32.8538H14.6134V33.2613H12.9016V34.5507H14.7616V34.9583H12.4422ZM18.5848 34.9583H18.1032L19.4963 31.1643H19.9705L21.3636 34.9583H20.8819L19.7482 31.7645H19.7186L18.5848 34.9583ZM18.7627 33.4762H20.7041V33.8838H18.7627V33.4762ZM28.9526 31.5718V31.1643H31.7981V31.5718H30.6051V34.9583H30.1457V31.5718H28.9526ZM38.4196 33.0613C38.4196 33.4614 38.3473 33.8072 38.2028 34.0987C38.0583 34.3901 37.8601 34.6149 37.6082 34.773C37.3562 34.9311 37.0685 35.0101 36.7449 35.0101C36.4213 35.0101 36.1336 34.9311 35.8816 34.773C35.6297 34.6149 35.4315 34.3901 35.287 34.0987C35.1425 33.8072 35.0702 33.4614 35.0702 33.0613C35.0702 32.6611 35.1425 32.3153 35.287 32.0239C35.4315 31.7324 35.6297 31.5076 35.8816 31.3495C36.1336 31.1915 36.4213 31.1124 36.7449 31.1124C37.0685 31.1124 37.3562 31.1915 37.6082 31.3495C37.8601 31.5076 38.0583 31.7324 38.2028 32.0239C38.3473 32.3153 38.4196 32.6611 38.4196 33.0613ZM37.975 33.0613C37.975 32.7328 37.92 32.4555 37.8101 32.2295C37.7014 32.0035 37.5538 31.8324 37.3674 31.7163C37.1821 31.6002 36.9746 31.5422 36.7449 31.5422C36.5152 31.5422 36.3071 31.6002 36.1206 31.7163C35.9354 31.8324 35.7878 32.0035 35.6778 32.2295C35.5692 32.4555 35.5148 32.7328 35.5148 33.0613C35.5148 33.3898 35.5692 33.667 35.6778 33.8931C35.7878 34.1191 35.9354 34.2901 36.1206 34.4062C36.3071 34.5223 36.5152 34.5803 36.7449 34.5803C36.9746 34.5803 37.1821 34.5223 37.3674 34.4062C37.5538 34.2901 37.7014 34.1191 37.8101 33.8931C37.92 33.667 37.975 33.3898 37.975 33.0613ZM46.3977 34.9583V31.1643H47.6796C47.9772 31.1643 48.2205 31.218 48.4095 31.3255C48.5997 31.4317 48.7405 31.5755 48.8319 31.7571C48.9233 31.9386 48.969 32.1412 48.969 32.3647C48.969 32.5883 48.9233 32.7914 48.8319 32.9742C48.7417 33.157 48.6022 33.3027 48.4132 33.4114C48.2242 33.5188 47.9822 33.5726 47.687 33.5726H46.7682V33.165H47.6722C47.876 33.165 48.0396 33.1298 48.1631 33.0594C48.2866 32.989 48.3762 32.8939 48.4317 32.7741C48.4885 32.6531 48.5169 32.5166 48.5169 32.3647C48.5169 32.2128 48.4885 32.077 48.4317 31.9572C48.3762 31.8374 48.286 31.7435 48.1613 31.6756C48.0365 31.6064 47.871 31.5718 47.6648 31.5718H46.8571V34.9583H46.3977ZM53.0377 31.1643V34.9583H52.5782V31.1643H53.0377ZM57.0503 31.1643L58.0284 32.7426H58.0581L59.0362 31.1643H59.5771L58.3841 33.0613L59.5771 34.9583H59.0362L58.0581 33.4095H58.0284L57.0503 34.9583H56.5094L57.732 33.0613L56.5094 31.1643H57.0503ZM63.0442 34.9583V31.1643H65.334V31.5718H63.5037V32.8538H65.2154V33.2613H63.5037V34.5507H65.3636V34.9583H63.0442ZM69.0312 34.9583V31.1643H69.4906V34.5507H71.2542V34.9583H69.0312Z" fill="#0f62e6"/> -->
</svg>
