<svg xmlns="http://www.w3.org/2000/svg" height="24" viewBox="0 -960 960 960" width="24"><path d="M480-475.384 160-684.615v420q0 10.769 6.923 17.692T184.615-240H540v40H184.615Q157-200 138.5-218.5 120-237 120-264.615v-430.77Q120-723 138.5-741.5 157-760 184.615-760h590.77Q803-760 821.5-741.5 840-723 840-695.385V-420h-40v-264.615L480-475.384ZM480-520l307.692-200H172.308L480-520ZM744.615-88.461 717.077-116l82.23-84H604.615v-40h195.462l-84-84 28.538-27.539L876.154-220 744.615-88.461ZM160-684.615v471.538V-420v6.846V-720v35.385Z"/></svg>